{"asset":{"generator":"3D Builder","version":"2.0"},"scene":0,"scenes":[{"nodes":[0,1]}],"nodes":[{"mesh":0,"matrix":[0.57284998893737793,0,0,0,0,-6.8288919408132642E-8,-0.572848916053772,0,0,0.050617586821317673,-2.7715877592981997E-8,0,-0.0066849295981228352,0.0022733865771442652,-0.046106774359941483,1]},{"mesh":1,"matrix":[1,0,0,0,0,-1.1920928955078125E-7,-0.99999988079071045,0,0,0.99999988079071045,-1.1920928955078125E-7,0,0,0,0,1]}],"meshes":[{"primitives":[{"attributes":{"POSITION":0},"mode":4,"indices":1,"material":0}]},{"primitives":[{"attributes":{"POSITION":2},"mode":4,"indices":70,"material":1},{"attributes":{"POSITION":3},"mode":4,"indices":71,"material":1},{"attributes":{"POSITION":4,"TEXCOORD_0":38},"mode":4,"indices":72,"material":2},{"attributes":{"POSITION":5,"COLOR_0":54},"mode":4,"indices":73},{"attributes":{"POSITION":6},"mode":4,"indices":74,"material":3},{"attributes":{"POSITION":7,"TEXCOORD_0":39},"mode":4,"indices":75,"material":2},{"attributes":{"POSITION":8,"COLOR_0":55},"mode":4,"indices":76},{"attributes":{"POSITION":9,"TEXCOORD_0":40},"mode":4,"indices":77,"material":2},{"attributes":{"POSITION":10,"COLOR_0":56},"mode":4,"indices":78},{"attributes":{"POSITION":11,"TEXCOORD_0":41},"mode":4,"indices":79,"material":2},{"attributes":{"POSITION":12,"COLOR_0":57},"mode":4,"indices":80},{"attributes":{"POSITION":13,"TEXCOORD_0":42},"mode":4,"indices":81,"material":2},{"attributes":{"POSITION":14,"COLOR_0":58},"mode":4,"indices":82},{"attributes":{"POSITION":15,"TEXCOORD_0":43},"mode":4,"indices":83,"material":2},{"attributes":{"POSITION":16,"COLOR_0":59},"mode":4,"indices":84},{"attributes":{"POSITION":17,"TEXCOORD_0":44},"mode":4,"indices":85,"material":2},{"attributes":{"POSITION":18,"COLOR_0":60},"mode":4,"indices":86},{"attributes":{"POSITION":19,"TEXCOORD_0":45},"mode":4,"indices":87,"material":2},{"attributes":{"POSITION":20,"COLOR_0":61},"mode":4,"indices":88},{"attributes":{"POSITION":21,"TEXCOORD_0":46},"mode":4,"indices":89,"material":2},{"attributes":{"POSITION":22,"COLOR_0":62},"mode":4,"indices":90},{"attributes":{"POSITION":23},"mode":4,"indices":91,"material":3},{"attributes":{"POSITION":24,"TEXCOORD_0":47},"mode":4,"indices":92,"material":2},{"attributes":{"POSITION":25,"COLOR_0":63},"mode":4,"indices":93},{"attributes":{"POSITION":26,"TEXCOORD_0":48},"mode":4,"indices":94,"material":2},{"attributes":{"POSITION":27,"COLOR_0":64},"mode":4,"indices":95},{"attributes":{"POSITION":28,"TEXCOORD_0":49},"mode":4,"indices":96,"material":2},{"attributes":{"POSITION":29,"COLOR_0":65},"mode":4,"indices":97},{"attributes":{"POSITION":30,"TEXCOORD_0":50},"mode":4,"indices":98,"material":2},{"attributes":{"POSITION":31,"COLOR_0":66},"mode":4,"indices":99},{"attributes":{"POSITION":32,"TEXCOORD_0":51},"mode":4,"indices":100,"material":2},{"attributes":{"POSITION":33,"COLOR_0":67},"mode":4,"indices":101},{"attributes":{"POSITION":34,"TEXCOORD_0":52},"mode":4,"indices":102,"material":2},{"attributes":{"POSITION":35,"COLOR_0":68},"mode":4,"indices":103},{"attributes":{"POSITION":36,"TEXCOORD_0":53},"mode":4,"indices":104,"material":2},{"attributes":{"POSITION":37,"COLOR_0":69},"mode":4,"indices":105}]}],"materials":[{"name":"Turquoise","pbrMetallicRoughness":{"baseColorFactor":[0,0.3515326976776123,0.80695247650146484,1],"metallicFactor":0,"roughnessFactor":1},"alphaMode":"OPAQUE"},{"name":"Translucent","pbrMetallicRoughness":{"baseColorFactor":[0.0015176339074969292,0.36063098907470703,0.81050705909729,1],"metallicFactor":0,"roughnessFactor":1},"alphaMode":"OPAQUE"},{"pbrMetallicRoughness":{"baseColorFactor":[1,1,1,1],"metallicFactor":0,"roughnessFactor":1,"baseColorTexture":{"index":0,"texCoord":0}},"alphaMode":"OPAQUE"},{"name":"FFFFFFFF","pbrMetallicRoughness":{"baseColorFactor":[1,1,1,1],"metallicFactor":0,"roughnessFactor":1},"alphaMode":"OPAQUE"}],"accessors":[{"bufferView":0,"byteOffset":0,"count":240,"componentType":5126,"type":"VEC3","min":[-0.023243602365255356,-0.11540000885725021,-0.044913202524185181],"max":[0.046582803130149841,-0.045573603361845016,0.024913201108574867]},{"bufferView":1,"byteOffset":0,"count":1428,"componentType":5125,"type":"SCALAR"},{"bufferView":2,"byteOffset":0,"count":240,"componentType":5126,"type":"VEC3","min":[-0.012305467389523983,-0.013000011444091797,-1.0437159581044853E-8],"max":[0.013694523833692074,0.012999990954995155,0.0089417304843664169]},{"bufferView":2,"byteOffset":2880,"count":31430,"componentType":5126,"type":"VEC3","min":[-0.012305467389523983,-0.013000011444091797,0.0089417304843664169],"max":[0.013694521971046925,0.012999990954995155,0.0089417304843664169]},{"bufferView":2,"byteOffset":380040,"count":1028,"componentType":5126,"type":"VEC3","min":[0.00782930850982666,0.0016534815076738596,0.0089417304843664169],"max":[0.010056649334728718,0.0027051903307437897,0.00969348382204771]},{"bufferView":2,"byteOffset":392376,"count":276,"componentType":5126,"type":"VEC3","min":[0.00782930850982666,0.0016534815076738596,0.0096934819594025612],"max":[0.010056649334728718,0.0027051903307437897,0.00969348382204771]},{"bufferView":2,"byteOffset":395688,"count":55,"componentType":5126,"type":"VEC3","min":[-0.00036518558044917881,-0.011459059081971645,0.0089417304843664169],"max":[0.0017889896407723427,-0.011459058150649071,0.00969347171485424]},{"bufferView":2,"byteOffset":396348,"count":11947,"componentType":5126,"type":"VEC3","min":[-0.0057505974546074867,-0.011459059081971645,0.0089417304843664169],"max":[0.0071403784677386284,0.0086245760321617126,0.00969348568469286]},{"bufferView":2,"byteOffset":539712,"count":3504,"componentType":5126,"type":"VEC3","min":[-0.0057505974546074867,-0.011459059081971645,0.0096934707835316658],"max":[0.0071403784677386284,0.0086245760321617126,0.00969348568469286]},{"bufferView":2,"byteOffset":581760,"count":1510,"componentType":5126,"type":"VEC3","min":[-0.00096051697619259357,-0.010645129717886448,0.0089417304843664169],"max":[0.0023479231167584658,-0.0096264705061912537,0.00969347357749939]},{"bufferView":2,"byteOffset":599880,"count":311,"componentType":5126,"type":"VEC3","min":[-0.00096051697619259357,-0.010645129717886448,0.009693472646176815],"max":[0.0023479231167584658,-0.0096264705061912537,0.00969347357749939]},{"bufferView":2,"byteOffset":603612,"count":1214,"componentType":5126,"type":"VEC3","min":[-0.001052308245562017,-0.0088512562215328217,0.0089417304843664169],"max":[0.0024356488138437271,-0.0081000952050089836,0.0096934763714671135]},{"bufferView":2,"byteOffset":618180,"count":100,"componentType":5126,"type":"VEC3","min":[-0.001052308245562017,-0.0088512562215328217,0.0096934745088219643],"max":[0.0024356488138437271,-0.0081000952050089836,0.0096934763714671135]},{"bufferView":2,"byteOffset":619380,"count":19338,"componentType":5126,"type":"VEC3","min":[-0.004819807130843401,-0.0057133105583488941,0.0089417304843664169],"max":[0.00620237085968256,0.00768685108050704,0.0096934866160154343]},{"bufferView":2,"byteOffset":851436,"count":4084,"componentType":5126,"type":"VEC3","min":[-0.004819807130843401,-0.0057133105583488941,0.0096934773027896881],"max":[0.00620237085968256,0.00768685108050704,0.0096934866160154343]},{"bufferView":2,"byteOffset":900444,"count":1049,"componentType":5126,"type":"VEC3","min":[0.00558851845562458,-0.004584465641528368,0.0089417304843664169],"max":[0.0074920947663486,-0.0026824204251170158,0.0096934791654348373]},{"bufferView":2,"byteOffset":913032,"count":271,"componentType":5126,"type":"VEC3","min":[0.00558851845562458,-0.004584465641528368,0.0096934773027896881],"max":[0.0074920947663486,-0.0026824204251170158,0.0096934791654348373]},{"bufferView":2,"byteOffset":916284,"count":1886,"componentType":5126,"type":"VEC3","min":[0.0055887061171233654,0.0070732389576733112,0.0089417304843664169],"max":[0.0074919541366398335,0.0089764911681413651,0.0096934884786605835]},{"bufferView":2,"byteOffset":938916,"count":282,"componentType":5126,"type":"VEC3","min":[0.0055887061171233654,0.0070732389576733112,0.0096934866160154343],"max":[0.0074919541366398335,0.0089764911681413651,0.0096934884786605835]},{"bufferView":2,"byteOffset":942300,"count":1110,"componentType":5126,"type":"VEC3","min":[-0.0060691311955451965,-0.0045846062712371349,0.0089417304843664169],"max":[-0.0041664508171379566,-0.0026819249615073204,0.0096934773027896881]},{"bufferView":2,"byteOffset":955620,"count":285,"componentType":5126,"type":"VEC3","min":[-0.0060691311955451965,-0.0045846062712371349,0.0096934754401445389],"max":[-0.0041664508171379566,-0.0026819249615073204,0.0096934773027896881]},{"bufferView":2,"byteOffset":959040,"count":6928,"componentType":5126,"type":"VEC3","min":[-0.0035981398541480303,0.0016540575306862593,0.0089417304843664169],"max":[-0.00062162283575162292,0.0059756836853921413,0.0096934819594025612]},{"bufferView":2,"byteOffset":1042176,"count":855,"componentType":5126,"type":"VEC3","min":[-0.0035981398541480303,0.0016540575306862593,0.0096934773027896881],"max":[-0.00062162283575162292,0.0059756836853921413,0.0096934819594025612]},{"bufferView":2,"byteOffset":1052436,"count":55,"componentType":5126,"type":"VEC3","min":[0.00036158235161565244,0.011459056288003922,0.0089417304843664169],"max":[0.00105245818849653,0.011459057219326496,0.0096934875473380089]},{"bufferView":2,"byteOffset":1053096,"count":1079,"componentType":5126,"type":"VEC3","min":[0.00016895165026653558,0.0093138460069894791,0.0089417304843664169],"max":[0.0012206619139760733,0.011459057219326496,0.0096934875473380089]},{"bufferView":2,"byteOffset":1066044,"count":249,"componentType":5126,"type":"VEC3","min":[0.00016895165026653558,0.0093138460069894791,0.00969348568469286],"max":[0.0012206619139760733,0.011459056288003922,0.0096934875473380089]},{"bufferView":2,"byteOffset":1069032,"count":1458,"componentType":5126,"type":"VEC3","min":[-0.0060689919628202915,0.0070730517618358135,0.0089417304843664169],"max":[-0.0041669444181025028,0.0089766327291727066,0.0096934819594025612]},{"bufferView":2,"byteOffset":1086528,"count":265,"componentType":5126,"type":"VEC3","min":[-0.0060689919628202915,0.0070730517618358135,0.0096934810280799866],"max":[-0.0041669444181025028,0.0089766327291727066,0.0096934819594025612]},{"bufferView":2,"byteOffset":1089708,"count":1164,"componentType":5126,"type":"VEC3","min":[-0.008667592890560627,0.0016535187605768442,0.0089417304843664169],"max":[-0.0064074569381773472,0.0027049307245761156,0.009693480096757412]},{"bufferView":2,"byteOffset":1103676,"count":274,"componentType":5126,"type":"VEC3","min":[-0.008667592890560627,0.0016535187605768442,0.0096934782341122627],"max":[-0.0064074569381773472,0.0027049307245761156,0.009693480096757412]},{"bufferView":2,"byteOffset":1106964,"count":1536,"componentType":5126,"type":"VEC3","min":[8.0194353358820081E-5,0.0054142368026077747,0.0089417304843664169],"max":[0.0011652503162622452,0.0064641241915524006,0.0096934828907251358]},{"bufferView":2,"byteOffset":1125396,"count":234,"componentType":5126,"type":"VEC3","min":[8.0194353358820081E-5,0.0054142368026077747,0.0096934810280799866],"max":[0.0011652503162622452,0.0064641241915524006,0.0096934828907251358]},{"bufferView":2,"byteOffset":1128204,"count":1485,"componentType":5126,"type":"VEC3","min":[0.00065234856447204947,-0.0010925697861239314,0.0089417304843664169],"max":[0.0013538175262510777,-0.00042878027306869626,0.0096934810280799866]},{"bufferView":2,"byteOffset":1146024,"count":145,"componentType":5126,"type":"VEC3","min":[0.00065234856447204947,-0.0010925697861239314,0.0096934810280799866],"max":[0.0013538175262510777,-0.00042878027306869626,0.0096934810280799866]},{"bufferView":2,"byteOffset":1147764,"count":2797,"componentType":5126,"type":"VEC3","min":[-0.001052271923981607,-0.0072821537032723427,0.0089417304843664169],"max":[0.0024353929329663515,-0.006531229242682457,0.0096934763714671135]},{"bufferView":2,"byteOffset":1181328,"count":101,"componentType":5126,"type":"VEC3","min":[-0.001052271923981607,-0.0072821537032723427,0.0096934745088219643],"max":[0.0024353929329663515,-0.006531229242682457,0.0096934763714671135]},{"bufferView":2,"byteOffset":1182540,"count":1634,"componentType":5126,"type":"VEC3","min":[0.00020356754248496145,-0.0057133100926876068,0.0089417304843664169],"max":[0.0011811952572315931,-0.0036601568572223186,0.0096934773027896881]},{"bufferView":2,"byteOffset":1202148,"count":181,"componentType":5126,"type":"VEC3","min":[0.00020356754248496145,-0.0057133100926876068,0.0096934745088219643],"max":[0.0011811952572315931,-0.0036601568572223186,0.0096934773027896881]},{"bufferView":3,"byteOffset":0,"count":1028,"componentType":5126,"type":"VEC2"},{"bufferView":3,"byteOffset":8224,"count":11947,"componentType":5126,"type":"VEC2"},{"bufferView":3,"byteOffset":103800,"count":1510,"componentType":5126,"type":"VEC2"},{"bufferView":3,"byteOffset":115880,"count":1214,"componentType":5126,"type":"VEC2"},{"bufferView":3,"byteOffset":125592,"count":19338,"componentType":5126,"type":"VEC2"},{"bufferView":3,"byteOffset":280296,"count":1049,"componentType":5126,"type":"VEC2"},{"bufferView":3,"byteOffset":288688,"count":1886,"componentType":5126,"type":"VEC2"},{"bufferView":3,"byteOffset":303776,"count":1110,"componentType":5126,"type":"VEC2"},{"bufferView":3,"byteOffset":312656,"count":6928,"componentType":5126,"type":"VEC2"},{"bufferView":3,"byteOffset":368080,"count":1079,"componentType":5126,"type":"VEC2"},{"bufferView":3,"byteOffset":376712,"count":1458,"componentType":5126,"type":"VEC2"},{"bufferView":3,"byteOffset":388376,"count":1164,"componentType":5126,"type":"VEC2"},{"bufferView":3,"byteOffset":397688,"count":1536,"componentType":5126,"type":"VEC2"},{"bufferView":3,"byteOffset":409976,"count":1485,"componentType":5126,"type":"VEC2"},{"bufferView":3,"byteOffset":421856,"count":2797,"componentType":5126,"type":"VEC2"},{"bufferView":3,"byteOffset":444232,"count":1634,"componentType":5126,"type":"VEC2"},{"bufferView":4,"byteOffset":0,"count":276,"componentType":5121,"type":"VEC4","normalized":true},{"bufferView":4,"byteOffset":1104,"count":3504,"componentType":5121,"type":"VEC4","normalized":true},{"bufferView":4,"byteOffset":15120,"count":311,"componentType":5121,"type":"VEC4","normalized":true},{"bufferView":4,"byteOffset":16364,"count":100,"componentType":5121,"type":"VEC4","normalized":true},{"bufferView":4,"byteOffset":16764,"count":4084,"componentType":5121,"type":"VEC4","normalized":true},{"bufferView":4,"byteOffset":33100,"count":271,"componentType":5121,"type":"VEC4","normalized":true},{"bufferView":4,"byteOffset":34184,"count":282,"componentType":5121,"type":"VEC4","normalized":true},{"bufferView":4,"byteOffset":35312,"count":285,"componentType":5121,"type":"VEC4","normalized":true},{"bufferView":4,"byteOffset":36452,"count":855,"componentType":5121,"type":"VEC4","normalized":true},{"bufferView":4,"byteOffset":39872,"count":249,"componentType":5121,"type":"VEC4","normalized":true},{"bufferView":4,"byteOffset":40868,"count":265,"componentType":5121,"type":"VEC4","normalized":true},{"bufferView":4,"byteOffset":41928,"count":274,"componentType":5121,"type":"VEC4","normalized":true},{"bufferView":4,"byteOffset":43024,"count":234,"componentType":5121,"type":"VEC4","normalized":true},{"bufferView":4,"byteOffset":43960,"count":145,"componentType":5121,"type":"VEC4","normalized":true},{"bufferView":4,"byteOffset":44540,"count":101,"componentType":5121,"type":"VEC4","normalized":true},{"bufferView":4,"byteOffset":44944,"count":181,"componentType":5121,"type":"VEC4","normalized":true},{"bufferView":5,"byteOffset":0,"count":1074,"componentType":5125,"type":"SCALAR"},{"bufferView":5,"byteOffset":4296,"count":94329,"componentType":5125,"type":"SCALAR"},{"bufferView":5,"byteOffset":381612,"count":2364,"componentType":5125,"type":"SCALAR"},{"bufferView":5,"byteOffset":391068,"count":819,"componentType":5125,"type":"SCALAR"},{"bufferView":5,"byteOffset":394344,"count":153,"componentType":5125,"type":"SCALAR"},{"bufferView":5,"byteOffset":394956,"count":29394,"componentType":5125,"type":"SCALAR"},{"bufferView":5,"byteOffset":512532,"count":10443,"componentType":5125,"type":"SCALAR"},{"bufferView":5,"byteOffset":554304,"count":3951,"componentType":5125,"type":"SCALAR"},{"bufferView":5,"byteOffset":570108,"count":924,"componentType":5125,"type":"SCALAR"},{"bufferView":5,"byteOffset":573804,"count":3036,"componentType":5125,"type":"SCALAR"},{"bufferView":5,"byteOffset":585948,"count":300,"componentType":5125,"type":"SCALAR"},{"bufferView":5,"byteOffset":587148,"count":49479,"componentType":5125,"type":"SCALAR"},{"bufferView":5,"byteOffset":785064,"count":12207,"componentType":5125,"type":"SCALAR"},{"bufferView":5,"byteOffset":833892,"count":2703,"componentType":5125,"type":"SCALAR"},{"bufferView":5,"byteOffset":844704,"count":795,"componentType":5125,"type":"SCALAR"},{"bufferView":5,"byteOffset":847884,"count":4848,"componentType":5125,"type":"SCALAR"},{"bufferView":5,"byteOffset":867276,"count":846,"componentType":5125,"type":"SCALAR"},{"bufferView":5,"byteOffset":870660,"count":2811,"componentType":5125,"type":"SCALAR"},{"bufferView":5,"byteOffset":881904,"count":855,"componentType":5125,"type":"SCALAR"},{"bufferView":5,"byteOffset":885324,"count":18285,"componentType":5125,"type":"SCALAR"},{"bufferView":5,"byteOffset":958464,"count":2556,"componentType":5125,"type":"SCALAR"},{"bufferView":5,"byteOffset":968688,"count":153,"componentType":5125,"type":"SCALAR"},{"bufferView":5,"byteOffset":969300,"count":2667,"componentType":5125,"type":"SCALAR"},{"bufferView":5,"byteOffset":979968,"count":735,"componentType":5125,"type":"SCALAR"},{"bufferView":5,"byteOffset":982908,"count":3771,"componentType":5125,"type":"SCALAR"},{"bufferView":5,"byteOffset":997992,"count":795,"componentType":5125,"type":"SCALAR"},{"bufferView":5,"byteOffset":1001172,"count":2880,"componentType":5125,"type":"SCALAR"},{"bufferView":5,"byteOffset":1012692,"count":813,"componentType":5125,"type":"SCALAR"},{"bufferView":5,"byteOffset":1015944,"count":3822,"componentType":5125,"type":"SCALAR"},{"bufferView":5,"byteOffset":1031232,"count":702,"componentType":5125,"type":"SCALAR"},{"bufferView":5,"byteOffset":1034040,"count":3789,"componentType":5125,"type":"SCALAR"},{"bufferView":5,"byteOffset":1049196,"count":435,"componentType":5125,"type":"SCALAR"},{"bufferView":5,"byteOffset":1050936,"count":6915,"componentType":5125,"type":"SCALAR"},{"bufferView":5,"byteOffset":1078596,"count":303,"componentType":5125,"type":"SCALAR"},{"bufferView":5,"byteOffset":1079808,"count":4569,"componentType":5125,"type":"SCALAR"},{"bufferView":5,"byteOffset":1098084,"count":543,"componentType":5125,"type":"SCALAR"}],"textures":[{"source":0,"sampler":0}],"images":[{"uri":"lampe.png"}],"samplers":[{"magFilter":9729,"wrapS":10497,"wrapT":10497}],"bufferViews":[{"buffer":0,"byteOffset":0,"byteLength":2880,"byteStride":12,"target":34962},{"buffer":0,"byteOffset":2880,"byteLength":5712,"target":34963},{"buffer":0,"byteOffset":8592,"byteLength":1204320,"byteStride":12,"target":34962},{"buffer":0,"byteOffset":1212912,"byteLength":457304,"byteStride":8,"target":34962},{"buffer":0,"byteOffset":1670216,"byteLength":45668,"byteStride":4,"target":34962},{"buffer":0,"byteOffset":1715884,"byteLength":1100256,"target":34963}],"buffers":[{"byteLength":2816140,"uri":"bouton-theme.bin"}]}