{"asset":{"generator":"3D Builder","version":"2.0"},"scene":0,"scenes":[{"nodes":[0,1,2,3,4]}],"nodes":[{"mesh":0,"matrix":[1,0,0,0,0,-1.1920928955078125E-7,-0.99999988079071045,0,0,0.99999988079071045,-1.1920928955078125E-7,0,-7.5697897949922321E-10,0.00089715322246775031,-1.0694901214636232E-10,1]},{"mesh":1,"matrix":[1,0,0,0,0,-1.1920928955078125E-7,-0.99999988079071045,0,0,0.99999988079071045,-1.1920928955078125E-7,0,-7.5697897949922321E-10,0.00089715322246775031,-1.0694901214636232E-10,1]},{"mesh":2,"matrix":[1,0,0,0,0,-1.1920928955078125E-7,-0.99999988079071045,0,0,0.99999988079071045,-1.1920928955078125E-7,0,-7.5697897949922321E-10,0.00010126182314706966,-1.2071351730702506E-11,1]},{"mesh":3,"matrix":[1,0,0,0,0,-1.1920928955078125E-7,-0.99999988079071045,0,0,0.99999988079071045,-1.1920928955078125E-7,0,-7.5697897949922321E-10,0.00010126182314706966,-1.2071351730702506E-11,1]},{"mesh":4,"matrix":[1,0,0,0,0,-1.1920928955078125E-7,-0.99999988079071045,0,0,0.99999988079071045,-1.1920928955078125E-7,0,-7.5697897949922321E-10,0.00010126182314706966,-1.2071351730702506E-11,1]}],"meshes":[{"primitives":[{"attributes":{"POSITION":0},"mode":4,"indices":1,"material":0}]},{"primitives":[{"attributes":{"POSITION":2},"mode":4,"indices":3,"material":0}]},{"primitives":[{"attributes":{"POSITION":4,"TEXCOORD_0":5},"mode":4,"indices":6,"material":1}]},{"primitives":[{"attributes":{"POSITION":7,"TEXCOORD_0":8},"mode":4,"indices":9,"material":1}]},{"primitives":[{"attributes":{"POSITION":10,"TEXCOORD_0":11},"mode":4,"indices":12,"material":1}]}],"materials":[{"name":"Turquoise","pbrMetallicRoughness":{"baseColorFactor":[0,0.3515326976776123,0.80695247650146484,1],"metallicFactor":0,"roughnessFactor":1},"alphaMode":"OPAQUE"},{"pbrMetallicRoughness":{"baseColorFactor":[1,1,1,1],"metallicFactor":0,"roughnessFactor":1,"baseColorTexture":{"index":0,"texCoord":0}},"alphaMode":"OPAQUE"}],"accessors":[{"bufferView":0,"byteOffset":0,"count":240,"componentType":5126,"type":"VEC3","min":[-0.020000027492642403,-0.01999998465180397,0.00031347665935754776],"max":[0.020000029355287552,0.01999998465180397,0.0038479331415146589]},{"bufferView":1,"byteOffset":0,"count":1428,"componentType":5125,"type":"SCALAR"},{"bufferView":2,"byteOffset":0,"count":240,"componentType":5126,"type":"VEC3","min":[-0.013000002130866051,-0.012999998405575752,-0.00089715328067541122],"max":[0.013000000268220901,0.012999996542930603,0.0079660955816507339]},{"bufferView":3,"byteOffset":0,"count":1428,"componentType":5125,"type":"SCALAR"},{"bufferView":4,"byteOffset":0,"count":114,"componentType":5126,"type":"VEC3","min":[-0.010350754484534264,-0.01035075169056654,0.0064133261330425739],"max":[0.010350752621889114,0.010350749827921391,0.0096934940665960312]},{"bufferView":5,"byteOffset":0,"count":114,"componentType":5126,"type":"VEC2"},{"bufferView":6,"byteOffset":0,"count":684,"componentType":5125,"type":"SCALAR"},{"bufferView":7,"byteOffset":0,"count":40,"componentType":5126,"type":"VEC3","min":[-0.0032072770409286022,-0.0064145508222281933,0.0064133261330425739],"max":[0.0030614892020821571,0.0020409906283020973,0.0096934940665960312]},{"bufferView":8,"byteOffset":0,"count":40,"componentType":5126,"type":"VEC2"},{"bufferView":9,"byteOffset":0,"count":228,"componentType":5125,"type":"SCALAR"},{"bufferView":10,"byteOffset":0,"count":22,"componentType":5126,"type":"VEC3","min":[-0.00029157195240259171,0.002915702760219574,0.0064133261330425739],"max":[0.0032072747126221657,0.0064145484939217567,0.0096934940665960312]},{"bufferView":11,"byteOffset":0,"count":22,"componentType":5126,"type":"VEC2"},{"bufferView":12,"byteOffset":0,"count":120,"componentType":5125,"type":"SCALAR"}],"textures":[{"source":0,"sampler":0}],"images":[{"uri":"info.png"}],"samplers":[{"magFilter":9729,"wrapS":10497,"wrapT":10497}],"bufferViews":[{"buffer":0,"byteOffset":0,"byteLength":2880,"byteStride":12,"target":34962},{"buffer":0,"byteOffset":2880,"byteLength":5712,"target":34963},{"buffer":0,"byteOffset":8592,"byteLength":2880,"byteStride":12,"target":34962},{"buffer":0,"byteOffset":11472,"byteLength":5712,"target":34963},{"buffer":0,"byteOffset":17184,"byteLength":1368,"byteStride":12,"target":34962},{"buffer":0,"byteOffset":18552,"byteLength":912,"byteStride":8,"target":34962},{"buffer":0,"byteOffset":19464,"byteLength":2736,"target":34963},{"buffer":0,"byteOffset":22200,"byteLength":480,"byteStride":12,"target":34962},{"buffer":0,"byteOffset":22680,"byteLength":320,"byteStride":8,"target":34962},{"buffer":0,"byteOffset":23000,"byteLength":912,"target":34963},{"buffer":0,"byteOffset":23912,"byteLength":264,"byteStride":12,"target":34962},{"buffer":0,"byteOffset":24176,"byteLength":176,"byteStride":8,"target":34962},{"buffer":0,"byteOffset":24352,"byteLength":480,"target":34963}],"buffers":[{"byteLength":24832,"uri":"bouton-info.bin"}]}