{"asset":{"generator":"3D Builder","version":"2.0"},"scene":0,"scenes":[{"nodes":[0,1,2]}],"nodes":[{"mesh":0,"matrix":[1,0,0,0,0,-1.1920928955078125E-7,-0.99999988079071045,0,0,0.99999988079071045,-1.1920928955078125E-7,0,-7.5697897949922321E-10,0.00089715322246775031,-1.0694901214636232E-10,1]},{"mesh":1,"matrix":[1,0,0,0,0,-1.1920928955078125E-7,-0.99999988079071045,0,0,0.99999988079071045,-1.1920928955078125E-7,0,-7.5697897949922321E-10,0.00089715322246775031,-1.0694901214636232E-10,1]},{"mesh":2,"matrix":[0.32548320293426514,0,0,0,0,-3.8800621382506506E-8,-0.32548317313194275,0,0,0.32548317313194275,-3.8800621382506506E-8,0,-0.0092127863317728043,0.0078508481383323669,0.0091353356838226318,1]}],"meshes":[{"primitives":[{"attributes":{"POSITION":0},"mode":4,"indices":1,"material":0}]},{"primitives":[{"attributes":{"POSITION":2},"mode":4,"indices":3,"material":0}]},{"primitives":[{"attributes":{"POSITION":4,"TEXCOORD_0":5},"mode":4,"indices":6,"material":1}]}],"materials":[{"name":"Turquoise","pbrMetallicRoughness":{"baseColorFactor":[0,0.3515326976776123,0.80695247650146484,1],"metallicFactor":0,"roughnessFactor":1},"alphaMode":"OPAQUE"},{"pbrMetallicRoughness":{"baseColorFactor":[1,1,1,1],"metallicFactor":0,"roughnessFactor":1,"baseColorTexture":{"index":0,"texCoord":0}},"alphaMode":"OPAQUE"}],"accessors":[{"bufferView":0,"byteOffset":0,"count":240,"componentType":5126,"type":"VEC3","min":[-0.020000027492642403,-0.01999998465180397,0.00031347665935754776],"max":[0.020000029355287552,0.01999998465180397,0.0038479331415146589]},{"bufferView":1,"byteOffset":0,"count":1428,"componentType":5125,"type":"SCALAR"},{"bufferView":2,"byteOffset":0,"count":240,"componentType":5126,"type":"VEC3","min":[-0.013000002130866051,-0.012999998405575752,-0.00089715328067541122],"max":[0.013000000268220901,0.012999996542930603,0.0079660955816507339]},{"bufferView":3,"byteOffset":0,"count":1428,"componentType":5125,"type":"SCALAR"},{"bufferView":4,"byteOffset":0,"count":104,"componentType":5126,"type":"VEC3","min":[0,0,0],"max":[0.051307998597621918,0.056134000420570374,0.0057149999774992466]},{"bufferView":5,"byteOffset":0,"count":104,"componentType":5126,"type":"VEC2"},{"bufferView":6,"byteOffset":0,"count":612,"componentType":5125,"type":"SCALAR"}],"textures":[{"source":0,"sampler":0}],"images":[{"uri":"musique.png"}],"samplers":[{"magFilter":9729,"wrapS":10497,"wrapT":10497}],"bufferViews":[{"buffer":0,"byteOffset":0,"byteLength":2880,"byteStride":12,"target":34962},{"buffer":0,"byteOffset":2880,"byteLength":5712,"target":34963},{"buffer":0,"byteOffset":8592,"byteLength":2880,"byteStride":12,"target":34962},{"buffer":0,"byteOffset":11472,"byteLength":5712,"target":34963},{"buffer":0,"byteOffset":17184,"byteLength":1248,"byteStride":12,"target":34962},{"buffer":0,"byteOffset":18432,"byteLength":832,"byteStride":8,"target":34962},{"buffer":0,"byteOffset":19264,"byteLength":2448,"target":34963}],"buffers":[{"byteLength":21712,"uri":"bouton-musique.bin"}]}